<?xml version="1.0" standalone="no"?>
<!DOCTYPE svg PUBLIC "-//W3C//DTD SVG 20010904//EN"
 "http://www.w3.org/TR/2001/REC-SVG-20010904/DTD/svg10.dtd">
<svg version="1.0" xmlns="http://www.w3.org/2000/svg"
 width="1036.000000pt" height="1036.000000pt" viewBox="0 0 1036.000000 1036.000000"
 preserveAspectRatio="xMidYMid meet">
<metadata>
Created by potrace 1.14, written by Peter Selinger 2001-2017
</metadata>
<g transform="translate(0.000000,1036.000000) scale(0.100000,-0.100000)"
fill="#000000" stroke="none">
<path d="M6240 9980 c-25 -4 -61 -10 -81 -14 -20 -3 -49 -10 -65 -16 -16 -6
-31 -11 -34 -11 -3 1 -27 -7 -55 -16 -27 -10 -52 -18 -55 -18 -23 -6 -150 -70
-150 -77 0 -4 -9 -8 -20 -8 -11 0 -20 -4 -20 -8 0 -5 -12 -15 -27 -23 -16 -8
-30 -16 -33 -19 -3 -3 -23 -18 -45 -34 -63 -46 -207 -196 -245 -253 -18 -29
-37 -53 -41 -53 -6 0 -19 -36 -16 -45 1 -2 -5 -10 -14 -17 -28 -23 -119 -253
-133 -339 -3 -19 -8 -45 -11 -59 -3 -14 -8 -56 -11 -95 -4 -53 -9 -3894 -5
-4037 1 -27 2 -27 59 -24 92 7 163 17 222 33 30 8 62 16 70 18 28 6 135 48
146 56 6 5 14 6 17 2 4 -3 7 -1 7 6 0 7 5 9 10 6 6 -3 10 -1 10 6 0 7 3 9 6 6
4 -4 19 2 34 13 16 11 33 20 39 20 6 0 11 3 11 8 0 4 13 13 30 20 16 7 46 29
67 47 21 19 41 35 45 35 9 0 158 148 178 176 70 99 119 176 134 212 11 23 23
42 28 42 4 0 7 3 6 8 -1 4 13 48 31 97 18 50 35 100 37 113 2 12 6 33 8 46 2
14 7 38 10 54 4 16 9 60 11 98 3 38 6 84 8 102 2 17 -1 32 -6 32 -4 0 -5 6 -1
12 11 18 12 48 2 54 -4 3 -5 11 -1 17 10 16 10 77 0 77 -4 0 -5 6 -1 12 11 18
12 48 2 54 -4 3 -5 11 -1 17 10 17 10 77 0 77 -6 0 -6 5 -1 13 11 14 11 37 1
54 -4 6 -4 14 0 16 10 6 9 99 -1 115 -4 7 -3 12 2 12 10 0 9 30 -2 48 -4 6 -3
12 2 12 10 0 9 30 -2 48 -4 6 -3 12 2 12 10 0 9 30 -2 48 -4 6 -3 12 2 12 10
0 9 30 -2 48 -4 6 -3 12 2 12 10 0 9 30 -2 48 -4 6 -3 12 2 12 10 0 9 30 -2
48 -4 6 -3 12 2 12 10 0 9 30 -2 48 -4 6 -3 12 2 12 10 0 9 30 -2 48 -4 6 -3
12 2 12 10 0 9 30 -2 48 -4 6 -3 12 2 12 10 0 9 30 -2 48 -4 6 -3 12 2 12 10
0 9 30 -2 48 -4 6 -3 12 2 12 10 0 9 30 -2 48 -4 6 -3 12 2 12 10 0 9 30 -2
48 -4 6 -3 12 2 12 10 0 9 30 -2 48 -4 6 -3 12 2 12 10 0 9 30 -2 48 -4 6 -3
12 2 12 10 0 9 30 -2 48 -4 6 -3 12 2 12 10 0 9 30 -2 48 -4 6 -3 12 2 12 10
0 9 30 -2 48 -4 6 -3 12 2 12 10 0 9 30 -2 48 -4 6 -3 12 2 12 10 0 9 30 -2
48 -4 6 -3 12 2 12 10 0 9 30 -2 48 -4 6 -3 12 2 12 10 0 9 30 -2 48 -4 6 -3
12 2 12 10 0 9 30 -2 48 -4 6 -3 12 2 12 10 0 9 30 -2 48 -4 6 -3 12 2 12 10
0 9 30 -2 48 -4 6 -3 12 2 12 10 0 9 30 -2 48 -4 6 -3 12 2 12 10 0 9 30 -2
48 -4 6 -3 12 2 12 10 0 9 30 -2 48 -4 6 -3 12 2 12 10 0 9 30 -2 48 -4 6 -3
12 2 12 10 0 9 30 -2 48 -4 6 -3 12 2 12 10 0 9 30 -2 48 -4 6 -3 12 2 12 10
0 9 30 -2 48 -4 6 -3 12 2 12 10 0 9 30 -2 48 -4 6 -3 12 2 12 10 0 9 30 -2
48 -4 6 -3 12 2 12 10 0 9 30 -2 48 -4 6 -3 12 2 12 10 0 9 30 -2 48 -4 6 -3
12 2 12 10 0 9 30 -2 48 -4 6 -3 12 2 12 10 0 9 30 -2 48 -4 6 -3 12 2 12 10
0 9 30 -2 48 -4 6 -3 12 2 12 10 0 10 30 -1 46 -3 6 -3 14 0 18 10 9 11 46 2
46 -4 0 -4 14 1 30 5 19 5 30 -1 30 -6 0 -7 6 -3 12 11 18 12 48 2 54 -4 3 -5
11 -1 17 4 6 8 39 9 72 1 71 12 154 22 169 3 6 8 18 9 27 1 9 12 38 24 65 12
27 23 51 24 54 1 6 52 86 69 109 54 73 219 211 253 211 7 0 13 5 13 10 0 6 3
9 8 8 4 -1 21 4 37 11 17 8 39 17 50 22 11 5 52 15 90 23 66 14 45 15 -325 14
-217 0 -415 -4 -440 -8z"/>
<path d="M10351 5484 c0 -11 3 -14 6 -6 3 7 2 16 -1 19 -3 4 -6 -2 -5 -13z"/>
<path d="M10345 5448 c-3 -7 -7 -26 -9 -43 -4 -34 -7 -45 -44 -134 -46 -115
-150 -246 -244 -309 -21 -13 -38 -29 -38 -33 0 -5 -3 -8 -7 -7 -5 1 -27 -8
-50 -20 -60 -31 -133 -59 -173 -66 -19 -3 -48 -9 -65 -14 -16 -5 -802 -9
-1745 -9 -943 -1 -1728 -4 -1745 -8 -16 -4 -40 -6 -52 -6 -13 0 -23 -3 -23 -7
0 -4 -11 -8 -25 -8 -65 -4 -317 -107 -366 -150 -8 -8 -19 -14 -23 -14 -28 0
-230 -184 -296 -270 -19 -25 -38 -46 -42 -48 -5 -2 -8 -8 -8 -12 0 -5 -11 -26
-25 -46 -45 -66 -122 -238 -141 -313 -20 -81 -35 -161 -39 -213 -8 -84 -9
-414 -1 -427 4 -5 2 -12 -2 -15 -5 -3 -6 -26 -2 -51 4 -25 3 -45 -2 -45 -5 0
-4 -9 2 -19 5 -11 6 -22 2 -25 -5 -3 -6 -26 -2 -51 4 -25 3 -45 -2 -45 -5 0
-6 -5 -2 -12 4 -6 7 -31 7 -55 -1 -44 10 -52 13 -10 6 79 78 255 123 304 12
12 21 25 21 28 0 8 105 112 139 138 47 37 130 87 145 87 8 0 18 5 21 10 3 6
15 10 26 10 10 0 19 4 19 8 0 4 8 9 18 10 9 0 46 8 82 16 55 12 318 14 1762
15 1659 1 1817 4 1870 32 10 5 18 7 18 5 0 -3 18 1 40 9 22 8 44 15 48 16 71
16 269 120 350 184 41 33 212 199 208 203 -2 2 6 13 18 26 87 92 209 357 231
501 4 22 10 63 15 90 8 46 10 805 3 805 -2 0 -6 -6 -8 -12z"/>
<path d="M4 1845 c1 -225 5 -419 8 -430 3 -11 9 -40 14 -65 4 -25 8 -47 9 -50
1 -3 5 -18 9 -35 4 -16 10 -37 13 -45 4 -8 7 -18 8 -22 2 -5 4 -11 5 -15 1 -5
2 -11 1 -15 0 -5 3 -8 7 -8 5 0 9 -6 9 -12 0 -15 63 -145 95 -198 60 -97 190
-243 276 -310 18 -14 38 -30 45 -35 48 -41 246 -147 275 -148 6 0 12 -5 12
-10 0 -6 3 -7 7 -4 3 4 12 2 20 -4 7 -6 13 -9 13 -5 0 3 17 -1 38 -10 20 -8
48 -17 62 -19 14 -3 36 -7 50 -10 14 -3 43 -9 65 -12 22 -4 961 -9 2086 -10
l2047 -3 -3 70 c-1 39 -5 73 -8 76 -3 3 -3 12 -1 19 3 7 1 16 -5 19 -6 4 -8
13 -5 20 14 35 -87 335 -120 358 -6 4 -8 8 -3 8 4 0 -4 18 -18 40 -14 22 -25
42 -25 45 0 8 -63 89 -73 93 -4 2 -7 8 -7 14 0 19 -174 183 -251 237 -70 50
-217 129 -269 145 -14 5 -29 10 -35 12 -14 5 -116 34 -140 40 -11 2 -36 6 -55
8 -19 3 -48 8 -64 12 -16 4 -797 8 -1735 9 -1751 2 -1757 2 -1848 41 -21 9
-42 17 -48 18 -25 6 -95 42 -95 48 0 5 -5 8 -11 8 -23 0 -209 166 -209 186 0
3 -11 20 -25 38 -14 18 -22 36 -18 39 3 4 2 7 -4 7 -8 0 -27 37 -59 115 -4 11
-16 52 -25 90 -18 70 -18 68 -15 -340z"/>
</g>
</svg>
