<?xml version="1.0" encoding="UTF-8"?>
<svg id="Layer_2" data-name="Layer 2" xmlns="http://www.w3.org/2000/svg" viewBox="0 0 517.68 480.8">
  <defs>
    <style>
      .cls-1 {
        fill: #fff;
      }
    </style>
  </defs>
  <g id="Layer_1-2" data-name="Layer 1">
    <g>
      <path class="cls-1" d="m357.65,0c-5.93,0-11.53,1.36-16.52,3.8-12.59,6.13-21.26,19.05-21.26,33.99v159.82c0,33.76-27.37,61.13-61.13,61.13V61.13c0-33.76,27.37-61.13,61.13-61.13h37.78Z"/>
      <path class="cls-1" d="m0,381.88c0,5.93,1.36,11.53,3.8,16.52,6.13,12.59,19.05,21.26,33.99,21.26h159.82c33.76,0,61.13,27.37,61.13,61.13H61.13c-33.76,0-61.13-27.37-61.13-61.13v-37.78Z"/>
      <path class="cls-1" d="m517.68,258.74v.21c0,32.04-24.65,58.32-56.01,60.92h-164.94c-15,0-27.95,8.73-34.06,21.4h0c-2.39,4.96-3.72,10.51-3.72,16.38l-.21-37.57h0c0-.15,0-.29,0-.44,0-1.72.07-3.43.21-5.12,2.46-29.61,26.01-53.23,55.6-55.78h165.14c15,0,27.96-8.74,34.06-21.41,2.38-4.95,3.72-10.51,3.72-16.37l.21,37.19v.59Z"/>
    </g>
  </g>
</svg>